<svg width="700" height="699" viewBox="0 0 700 699" fill="none" xmlns="http://www.w3.org/2000/svg">
<path d="M318.964 649.533C319.307 649.584 319.566 649.729 319.74 649.965C319.915 650.202 319.976 650.492 319.925 650.834L314.849 684.514C314.792 684.891 314.645 685.167 314.408 685.342C314.172 685.516 313.882 685.578 313.539 685.526L293.691 682.535C293.314 682.478 293.038 682.331 292.864 682.095C292.689 681.858 292.63 681.551 292.687 681.174L292.803 680.403C292.855 680.06 292.999 679.801 293.236 679.626C293.472 679.452 293.779 679.393 294.156 679.45L311.896 682.123L313.981 668.292L297.269 665.773C296.892 665.716 296.616 665.569 296.442 665.333C296.267 665.096 296.208 664.789 296.265 664.412L296.381 663.641C296.433 663.298 296.577 663.039 296.814 662.865C297.05 662.69 297.357 662.631 297.734 662.688L314.446 665.206L316.685 650.346C316.737 650.003 316.881 649.745 317.118 649.57C317.354 649.395 317.661 649.336 318.038 649.393L318.964 649.533Z" fill="#202020"/>
<path d="M272.134 640.579C272.468 640.673 272.707 640.848 272.851 641.104C272.995 641.36 273.021 641.655 272.927 641.989L263.739 674.84C263.645 675.174 263.47 675.413 263.214 675.557C262.958 675.702 262.663 675.727 262.329 675.634L261.377 675.368C261.043 675.274 260.804 675.099 260.66 674.843C260.516 674.587 260.49 674.292 260.584 673.958L269.772 641.107C269.866 640.773 270.041 640.534 270.297 640.39C270.553 640.245 270.848 640.22 271.182 640.313L272.134 640.579Z" fill="#202020"/>
<path d="M239.536 629.849C239.856 629.982 240.073 630.185 240.185 630.457C240.297 630.728 240.287 631.024 240.154 631.345L227.829 661.023L237.338 664.972C237.658 665.105 237.874 665.307 237.987 665.579C238.099 665.851 238.089 666.147 237.956 666.467L237.656 667.188C237.51 667.54 237.301 667.772 237.029 667.884C236.757 667.997 236.461 667.986 236.141 667.853L214.146 658.72C213.794 658.573 213.562 658.364 213.45 658.092C213.337 657.821 213.354 657.508 213.501 657.156L213.8 656.436C213.933 656.116 214.135 655.9 214.407 655.787C214.679 655.675 214.991 655.692 215.343 655.838L224.804 659.767L237.128 630.088C237.261 629.768 237.464 629.552 237.736 629.44C238.008 629.327 238.32 629.344 238.672 629.49L239.536 629.849Z" fill="#202020"/>
<path d="M204.164 613.713C204.457 613.899 204.635 614.135 204.7 614.422C204.764 614.709 204.704 614.999 204.518 615.292L186.292 644.065C186.088 644.387 185.843 644.581 185.556 644.645C185.269 644.71 184.979 644.649 184.686 644.464L183.763 643.879C183.47 643.694 183.297 643.481 183.243 643.242C183.19 643.003 183.167 642.845 183.175 642.768L182.659 607.724L167.271 632.017C167.067 632.339 166.821 632.532 166.534 632.597C166.247 632.661 165.958 632.6 165.665 632.415L164.874 631.914C164.552 631.71 164.359 631.464 164.294 631.177C164.23 630.89 164.3 630.586 164.504 630.264L182.702 601.534C182.887 601.242 183.133 601.048 183.438 600.955C183.725 600.89 184.015 600.951 184.308 601.136L185.275 601.748C185.567 601.934 185.741 602.146 185.794 602.385C185.819 602.606 185.842 602.764 185.863 602.86L186.391 637.788L201.751 613.539C201.936 613.246 202.172 613.068 202.459 613.003C202.746 612.939 203.051 613.009 203.373 613.213L204.164 613.713Z" fill="#202020"/>
<path d="M157.864 581.932C158.12 582.165 158.255 582.429 158.268 582.723C158.281 583.017 158.171 583.292 157.937 583.548L134.965 608.695C134.708 608.976 134.432 609.123 134.139 609.137C133.845 609.15 133.57 609.04 133.314 608.806L118.341 595.128C118.059 594.871 117.912 594.595 117.899 594.301C117.885 594.007 118.007 593.72 118.265 593.438L118.791 592.862C119.024 592.606 119.288 592.472 119.582 592.458C119.876 592.445 120.164 592.567 120.445 592.824L133.844 605.064L142.787 595.275L130.233 583.806C129.952 583.549 129.804 583.273 129.791 582.979C129.778 582.685 129.9 582.398 130.157 582.116L130.683 581.54C130.917 581.284 131.181 581.15 131.474 581.137C131.768 581.123 132.056 581.245 132.338 581.502L144.892 592.971L154.186 582.797L140.48 570.276C140.198 570.019 140.051 569.744 140.038 569.45C140.024 569.156 140.146 568.868 140.404 568.587L140.93 568.011C141.163 567.755 141.427 567.62 141.721 567.607C142.015 567.594 142.303 567.716 142.584 567.973L157.864 581.932Z" fill="#202020"/>
<path d="M116.87 539.389C118.6 541.6 119.72 543.762 120.228 545.873C120.715 547.958 120.719 549.847 120.241 551.542C119.762 553.237 118.917 554.604 117.704 555.641C117.485 555.812 117.23 555.88 116.938 555.844C116.646 555.808 116.404 555.668 116.212 555.422L115.571 554.603C115.357 554.33 115.279 554.061 115.336 553.797C115.371 553.505 115.487 553.259 115.684 553.061C116.363 552.354 116.861 551.414 117.176 550.243C117.465 549.093 117.43 547.755 117.073 546.23C116.688 544.726 115.802 543.087 114.413 541.312C112.319 538.637 110.313 537.059 108.397 536.578C106.452 536.119 104.661 536.53 103.023 537.812C101.931 538.667 101.314 539.678 101.172 540.846C100.981 542.008 101.138 543.447 101.645 545.164C102.125 546.901 102.838 549.05 103.786 551.611C104.675 554.04 105.283 556.139 105.611 557.908C105.911 559.698 105.819 561.267 105.333 562.615C104.827 563.937 103.822 565.185 102.321 566.36C100.929 567.45 99.3981 568.053 97.7292 568.171C96.0331 568.31 94.3126 567.939 92.5677 567.06C90.8015 566.153 89.1278 564.69 87.5467 562.67C86.2861 561.059 85.4041 559.482 84.9008 557.939C84.3974 556.396 84.2045 554.94 84.322 553.572C84.4121 552.224 84.7201 551.015 85.2459 549.943C85.7444 548.892 86.3788 548.044 87.1491 547.397C87.3402 547.247 87.5847 547.166 87.8826 547.153C88.1532 547.161 88.4061 547.316 88.6411 547.616L89.2821 548.435C89.3889 548.571 89.4732 548.791 89.5349 549.095C89.5753 549.372 89.4531 549.666 89.1682 549.977C87.9314 551.209 87.3784 552.808 87.509 554.775C87.591 556.736 88.4225 558.726 90.0036 560.747C91.5847 562.767 93.2732 564.108 95.0691 564.772C96.865 565.435 98.6093 565.105 100.302 563.78C101.394 562.925 102.07 561.934 102.331 560.805C102.565 559.697 102.474 558.316 102.059 556.66C101.616 555.026 100.95 552.993 100.061 550.564C99.1137 548.004 98.4442 545.798 98.0524 543.948C97.6606 542.097 97.6861 540.471 98.1288 539.068C98.5442 537.686 99.5026 536.407 101.004 535.232C102.669 533.929 104.42 533.241 106.256 533.169C108.044 533.09 109.85 533.57 111.674 534.607C113.471 535.666 115.203 537.26 116.87 539.389Z" fill="#202020"/>
<path d="M88.3602 497.54C89.6949 500.01 90.4353 502.329 90.5816 504.496C90.7113 506.633 90.3981 508.496 89.6419 510.087C88.8857 511.677 87.8226 512.882 86.4526 513.701C86.2086 513.833 85.9456 513.857 85.6638 513.773C85.3819 513.688 85.1668 513.509 85.0185 513.235L84.5242 512.32C84.3594 512.015 84.3273 511.736 84.4279 511.485C84.5121 511.203 84.6679 510.981 84.8954 510.819C85.6835 510.235 86.3316 509.393 86.8395 508.291C87.317 507.205 87.5077 505.881 87.4116 504.317C87.285 502.77 86.6862 501.005 85.6152 499.023C84.0003 496.034 82.2884 494.142 80.4794 493.346C78.6399 492.566 76.8052 492.671 74.9752 493.66C73.7551 494.319 72.9769 495.212 72.6403 496.34C72.2568 497.453 72.1708 498.898 72.3822 500.675C72.5631 502.469 72.9055 504.707 73.4093 507.39C73.8777 509.935 74.1249 512.106 74.1509 513.905C74.1464 515.72 73.7916 517.251 73.0866 518.499C72.3651 519.716 71.1656 520.778 69.4881 521.684C67.9326 522.524 66.3224 522.862 64.6575 522.698C62.9621 522.55 61.3282 521.896 59.7558 520.736C58.167 519.545 56.7629 517.822 55.5435 515.565C54.5714 513.765 53.9668 512.063 53.7297 510.457C53.4927 508.851 53.547 507.384 53.8927 506.054C54.2078 504.741 54.7146 503.601 55.4129 502.632C56.0808 501.681 56.8487 500.951 57.7167 500.442C57.9302 500.327 58.1849 500.288 58.4808 500.325C58.7462 500.379 58.9695 500.573 59.1508 500.909L59.6451 501.824C59.7275 501.976 59.7736 502.207 59.7834 502.517C59.7768 502.797 59.6069 503.066 59.2739 503.324C57.8477 504.331 57.0339 505.815 56.8323 507.776C56.5838 509.723 57.0692 511.825 58.2886 514.082C59.5079 516.339 60.9471 517.945 62.606 518.901C64.265 519.856 66.04 519.823 67.931 518.802C69.151 518.143 69.9845 517.279 70.4315 516.21C70.8479 515.157 70.9904 513.78 70.8589 512.078C70.6969 510.392 70.3817 508.277 69.9133 505.733C69.4095 503.05 69.1199 500.763 69.0445 498.873C68.9691 496.983 69.2674 495.384 69.9394 494.075C70.581 492.783 71.7405 491.684 73.418 490.777C75.2785 489.772 77.1199 489.388 78.9423 489.625C80.7176 489.848 82.4174 490.624 84.0417 491.953C85.6354 493.299 87.0749 495.161 88.3602 497.54Z" fill="#202020"/>
<path d="M62.0696 385.126C62.1084 385.471 62.0361 385.758 61.8527 385.988C61.6693 386.218 61.4053 386.353 61.0609 386.391L6.28747 392.563C5.94298 392.602 5.65574 392.53 5.42576 392.346C5.19578 392.163 5.06138 391.899 5.02257 391.554L4.92359 390.676C4.88477 390.331 4.95706 390.044 5.14047 389.814C5.32387 389.584 5.58781 389.45 5.9323 389.411L60.7057 383.239C61.0502 383.2 61.3374 383.273 61.5674 383.456C61.7974 383.64 61.9318 383.904 61.9706 384.248L62.0696 385.126Z" fill="#202020"/>
<path d="M56.0605 284.182C55.9692 284.516 55.7959 284.756 55.5405 284.902C55.2851 285.048 54.9902 285.075 54.6557 284.984L21.7968 276.019C21.4289 275.919 21.172 275.741 21.0261 275.485C20.8802 275.23 20.8528 274.935 20.9441 274.601L26.2274 255.236C26.3278 254.868 26.5057 254.612 26.7611 254.466C27.0165 254.32 27.3282 254.297 27.696 254.397L28.4485 254.603C28.783 254.694 29.0232 254.867 29.1691 255.123C29.315 255.378 29.3378 255.69 29.2374 256.058L24.5153 273.365L38.01 277.047L42.4584 260.743C42.5587 260.375 42.7366 260.118 42.9921 259.972C43.2475 259.826 43.5591 259.803 43.927 259.904L44.6795 260.109C45.0139 260.2 45.2541 260.374 45.4 260.629C45.546 260.885 45.5687 261.196 45.4684 261.564L41.02 277.868L55.518 281.824C55.8525 281.915 56.0926 282.088 56.2386 282.344C56.3845 282.599 56.4072 282.911 56.3069 283.279L56.0605 284.182Z" fill="#202020"/>
<path d="M70.4094 238.713C70.2777 239.034 70.0762 239.251 69.8048 239.364C69.5334 239.478 69.2374 239.468 68.9167 239.337L37.3597 226.384C37.039 226.252 36.822 226.05 36.7085 225.779C36.5951 225.508 36.6042 225.211 36.7358 224.891L37.111 223.977C37.2426 223.656 37.4442 223.439 37.7156 223.326C37.987 223.212 38.283 223.221 38.6037 223.353L70.1607 236.306C70.4814 236.438 70.6984 236.639 70.8119 236.911C70.9253 237.182 70.9162 237.478 70.7846 237.799L70.4094 238.713Z" fill="#202020"/>
<path d="M84.8632 207.588C84.6938 207.89 84.4676 208.081 84.1845 208.161C83.9014 208.241 83.6086 208.196 83.3061 208.027L55.2654 192.329L50.2358 201.313C50.0665 201.615 49.8402 201.806 49.5571 201.886C49.274 201.966 48.9813 201.921 48.6788 201.752L47.9982 201.371C47.6654 201.185 47.4591 200.95 47.3792 200.667C47.2993 200.384 47.3441 200.091 47.5134 199.788L59.1475 179.007C59.3338 178.675 59.5685 178.468 59.8516 178.389C60.1347 178.309 60.4426 178.362 60.7753 178.548L61.4559 178.929C61.7584 179.099 61.9496 179.325 62.0295 179.608C62.1094 179.891 62.0562 180.199 61.8699 180.532L56.8657 189.47L84.9065 205.169C85.2089 205.338 85.4001 205.564 85.48 205.847C85.5599 206.13 85.5067 206.438 85.3204 206.771L84.8632 207.588Z" fill="#202020"/>
<path d="M105.01 174.336C104.792 174.605 104.536 174.755 104.244 174.785C103.951 174.816 103.67 174.722 103.401 174.504L76.9469 153.05C76.6507 152.81 76.4874 152.543 76.4568 152.251C76.4263 151.958 76.5202 151.677 76.7386 151.408L77.4264 150.56C77.6448 150.291 77.8758 150.143 78.1197 150.118C78.3635 150.092 78.5232 150.088 78.5989 150.105L113.464 153.675L91.1294 135.562C90.8332 135.322 90.6699 135.055 90.6393 134.763C90.6088 134.47 90.7027 134.189 90.9211 133.92L91.5106 133.193C91.7508 132.897 92.0172 132.734 92.3098 132.703C92.6024 132.672 92.8967 132.777 93.1929 133.017L119.607 154.439C119.876 154.657 120.039 154.923 120.097 155.238C120.127 155.53 120.033 155.811 119.815 156.08L119.094 156.969C118.876 157.238 118.645 157.386 118.401 157.411C118.179 157.41 118.019 157.414 117.922 157.424L83.1703 153.879L105.464 171.959C105.734 172.178 105.884 172.433 105.914 172.726C105.945 173.018 105.84 173.313 105.6 173.609L105.01 174.336Z" fill="#202020"/>
<path d="M141.97 132.054C141.708 132.281 141.43 132.384 141.136 132.363C140.843 132.342 140.583 132.201 140.356 131.938L118.057 106.193C117.807 105.905 117.693 105.614 117.714 105.321C117.735 105.027 117.876 104.767 118.138 104.54L133.468 91.2626C133.756 91.0129 134.047 90.8986 134.34 90.9197C134.634 90.9407 134.905 91.0954 135.155 91.3836L135.665 91.9732C135.892 92.2352 135.995 92.513 135.974 92.8064C135.953 93.0998 135.799 93.3713 135.51 93.621L121.793 105.503L130.474 115.526L143.327 104.393C143.615 104.143 143.906 104.029 144.2 104.05C144.493 104.071 144.764 104.226 145.014 104.514L145.525 105.104C145.752 105.366 145.855 105.643 145.834 105.937C145.813 106.23 145.658 106.502 145.37 106.751L132.517 117.884L141.539 128.3L155.571 116.146C155.859 115.896 156.15 115.782 156.443 115.803C156.737 115.824 157.008 115.979 157.258 116.267L157.768 116.857C157.995 117.119 158.098 117.396 158.077 117.69C158.056 117.983 157.902 118.255 157.613 118.504L141.97 132.054Z" fill="#202020"/>
<path d="M188.998 96.2952C186.601 97.7565 184.324 98.6164 182.167 98.8751C180.04 99.1157 178.163 98.8997 176.535 98.2272C174.908 97.5547 173.649 96.5557 172.76 95.23C172.616 94.9932 172.578 94.7319 172.648 94.446C172.717 94.1601 172.885 93.936 173.151 93.7737L174.039 93.2324C174.335 93.052 174.612 93.0055 174.868 93.093C175.154 93.1623 175.384 93.3064 175.558 93.5252C176.181 94.2819 177.056 94.8853 178.183 95.3353C179.292 95.7557 180.624 95.8773 182.181 95.7001C183.719 95.4933 185.451 94.8036 187.375 93.631C190.276 91.863 192.077 90.055 192.777 88.2071C193.46 86.3296 193.26 84.5028 192.178 82.7266C191.456 81.5425 190.524 80.8117 189.38 80.5342C188.248 80.2091 186.801 80.1982 185.037 80.5017C183.255 80.7756 181.038 81.2339 178.384 81.8764C175.868 82.4764 173.712 82.8361 171.917 82.9555C170.105 83.0453 168.557 82.7706 167.274 82.1314C166.021 81.4742 164.899 80.3315 163.906 78.7033C162.986 77.1936 162.565 75.6031 162.643 73.9319C162.702 72.2311 163.27 70.5655 164.347 68.9349C165.454 67.2864 167.102 65.7946 169.293 64.4596C171.039 63.3952 172.708 62.7029 174.299 62.3828C175.89 62.0627 177.359 62.0406 178.704 62.3167C180.032 62.5632 181.197 63.01 182.201 63.6571C183.186 64.2746 183.955 65.0035 184.508 65.844C184.634 66.0512 184.686 66.3035 184.665 66.6009C184.625 66.8687 184.442 67.1019 184.116 67.3003L183.228 67.8415C183.08 67.9317 182.852 67.9898 182.543 68.0157C182.263 68.0236 181.986 67.8679 181.71 67.5488C180.631 66.1769 179.106 65.4413 177.138 65.3419C175.181 65.1949 173.107 65.7888 170.916 67.1238C168.726 68.4588 167.196 69.9795 166.328 71.6859C165.46 73.3923 165.585 75.1632 166.704 76.9985C167.425 78.1826 168.332 78.9701 169.422 79.3609C170.495 79.7221 171.878 79.7929 173.571 79.5731C175.246 79.3237 177.341 78.899 179.858 78.299C182.511 77.6564 184.78 77.2484 186.663 77.0749C188.547 76.9014 190.159 77.1162 191.501 77.7193C192.825 78.2928 193.983 79.3936 194.975 81.0218C196.076 82.8275 196.555 84.6465 196.413 86.4787C196.283 88.2632 195.596 90.001 194.353 91.6922C193.092 93.3537 191.307 94.888 188.998 96.2952Z" fill="#202020"/>
<path d="M233.884 72.8548C231.275 73.8926 228.886 74.3579 226.717 74.2507C224.58 74.1306 222.765 73.6025 221.274 72.6661C219.782 71.7298 218.709 70.5336 218.055 69.0774C217.953 68.8197 217.96 68.5558 218.076 68.2857C218.193 68.0155 218.396 67.8228 218.686 67.7075L219.652 67.3231C219.974 67.195 220.254 67.1955 220.492 67.3247C220.762 67.4411 220.965 67.6218 221.099 67.8667C221.587 68.7174 222.348 69.4592 223.384 70.092C224.406 70.6927 225.699 71.0364 227.263 71.1231C228.815 71.1777 230.637 70.7885 232.731 69.9557C235.888 68.7001 237.967 67.2203 238.968 65.5164C239.956 63.7802 240.066 61.9457 239.297 60.013C238.785 58.7245 237.988 57.8474 236.908 57.3819C235.846 56.8712 234.421 56.6174 232.631 56.6204C230.829 56.5911 228.566 56.6704 225.843 56.8582C223.261 57.027 221.075 57.0195 219.286 56.8358C217.484 56.6199 216.005 56.0891 214.847 55.2435C213.723 54.3852 212.808 53.0702 212.103 51.2985C211.45 49.6557 211.302 48.0171 211.659 46.3826C212.003 44.716 212.843 43.1694 214.178 41.7429C215.546 40.3036 217.422 39.1099 219.805 38.1618C221.706 37.4058 223.467 37.0037 225.09 36.9554C226.712 36.907 228.163 37.1319 229.443 37.6301C230.71 38.0961 231.784 38.7322 232.665 39.5386C233.532 40.3128 234.168 41.1606 234.572 42.0819C234.661 42.3074 234.67 42.5649 234.599 42.8545C234.515 43.1118 234.296 43.3109 233.941 43.4519L232.975 43.8362C232.814 43.9003 232.579 43.9192 232.27 43.8928C231.993 43.8536 231.746 43.6536 231.528 43.2927C230.694 41.7589 229.315 40.7778 227.391 40.3492C225.486 39.8755 223.342 40.1128 220.958 41.0609C218.575 42.009 216.812 43.2512 215.669 44.7875C214.527 46.3238 214.353 48.0906 215.147 50.0877C215.66 51.3762 216.421 52.3047 217.43 52.8732C218.427 53.4094 219.778 53.7114 221.484 53.7791C223.177 53.8145 225.314 53.7479 227.896 53.5791C230.62 53.3913 232.924 53.37 234.81 53.5153C236.696 53.6606 238.25 54.1432 239.471 54.9631C240.68 55.7509 241.637 57.0306 242.341 58.8022C243.123 60.7672 243.29 62.6408 242.842 64.4231C242.414 66.1604 241.445 67.7582 239.936 69.2166C238.414 70.6427 236.397 71.8555 233.884 72.8548Z" fill="#202020"/>
<path d="M348.595 59.8393C348.249 59.8378 347.972 59.7325 347.765 59.5235C347.558 59.3146 347.455 59.0368 347.457 58.6901L347.708 3.5707C347.71 3.22403 347.815 2.94718 348.024 2.74013C348.233 2.53308 348.511 2.43035 348.857 2.43193L349.741 2.43596C350.088 2.43754 350.365 2.5428 350.572 2.75175C350.779 2.9607 350.882 3.2385 350.88 3.58517L350.629 58.7046C350.627 59.0513 350.522 59.3281 350.313 59.5352C350.104 59.7422 349.826 59.8449 349.479 59.8434L348.595 59.8393Z" fill="#202020"/>
<path d="M449.552 65.6318C449.23 65.5022 449.012 65.3021 448.897 65.0314C448.782 64.7607 448.789 64.4646 448.919 64.1431L461.651 32.5524C461.793 32.1987 462 31.9642 462.271 31.8491C462.541 31.7339 462.837 31.7411 463.159 31.8707L481.776 39.374C482.13 39.5165 482.364 39.7232 482.479 39.9938C482.594 40.2645 482.581 40.5767 482.438 40.9304L482.146 41.6538C482.017 41.9754 481.817 42.1937 481.546 42.3089C481.275 42.424 480.963 42.4103 480.61 42.2678L463.97 35.5615L458.741 48.5354L474.416 54.8529C474.77 54.9955 475.004 55.2021 475.119 55.4728C475.234 55.7434 475.221 56.0556 475.078 56.4093L474.787 57.1328C474.657 57.4543 474.457 57.6726 474.186 57.7878C473.915 57.903 473.603 57.8893 473.25 57.7467L457.575 51.4292L451.957 65.3677C451.828 65.6892 451.627 65.9076 451.357 66.0228C451.086 66.1379 450.774 66.1242 450.42 65.9817L449.552 65.6318Z" fill="#202020"/>
<path d="M493.04 85.1796C492.737 85.0115 492.544 84.786 492.463 84.5033C492.382 84.2205 492.426 83.9275 492.594 83.6243L509.136 53.7914C509.304 53.4882 509.529 53.2961 509.812 53.215C510.095 53.134 510.388 53.1775 510.691 53.3456L511.555 53.8247C511.858 53.9928 512.05 54.2182 512.131 54.501C512.212 54.7838 512.169 55.0768 512.001 55.3799L495.459 85.2129C495.291 85.5161 495.066 85.7082 494.783 85.7893C494.5 85.8703 494.207 85.8268 493.904 85.6587L493.04 85.1796Z" fill="#202020"/>
<path d="M522.269 103.162C521.988 102.958 521.825 102.711 521.778 102.421C521.732 102.13 521.811 101.845 522.014 101.564L540.872 75.5432L532.535 69.5013C532.255 69.2978 532.091 69.0509 532.045 68.7604C531.999 68.4699 532.077 68.1843 532.281 67.9036L532.738 67.272C532.962 66.9633 533.219 66.7857 533.51 66.7393C533.8 66.693 534.086 66.7715 534.366 66.975L553.651 80.9508C553.959 81.1746 554.137 81.4317 554.183 81.7222C554.23 82.0127 554.141 82.3123 553.917 82.6211L553.459 83.2527C553.256 83.5334 553.009 83.6969 552.718 83.7433C552.428 83.7896 552.128 83.7009 551.82 83.4771L543.525 77.4657L524.667 103.487C524.463 103.767 524.216 103.931 523.926 103.977C523.635 104.024 523.336 103.935 523.027 103.711L522.269 103.162Z" fill="#202020"/>
<path d="M552.948 127.045C552.706 126.797 552.587 126.526 552.59 126.232C552.594 125.937 552.72 125.669 552.968 125.427L577.358 101.653C577.631 101.387 577.915 101.255 578.209 101.259C578.503 101.263 578.771 101.389 579.013 101.637L579.775 102.419C580.017 102.667 580.137 102.914 580.134 103.159C580.13 103.404 580.116 103.564 580.091 103.637L572.483 137.848L593.075 117.776C593.348 117.51 593.631 117.379 593.925 117.383C594.22 117.386 594.488 117.512 594.73 117.761L595.383 118.431C595.649 118.704 595.78 118.987 595.777 119.282C595.773 119.576 595.634 119.856 595.361 120.122L571.009 143.86C570.761 144.102 570.477 144.233 570.158 144.254C569.864 144.25 569.596 144.124 569.354 143.876L568.555 143.057C568.313 142.808 568.194 142.562 568.197 142.317C568.224 142.096 568.239 141.937 568.24 141.839L575.809 107.737L555.255 127.773C555.007 128.015 554.736 128.134 554.441 128.131C554.147 128.127 553.867 127.988 553.601 127.715L552.948 127.045Z" fill="#202020"/>
<path d="M590.635 168.679C590.44 168.392 590.37 168.104 590.425 167.815C590.481 167.526 590.651 167.285 590.938 167.09L619.106 147.942C619.421 147.727 619.724 147.648 620.013 147.703C620.302 147.758 620.543 147.929 620.738 148.215L632.14 164.987C632.354 165.302 632.434 165.605 632.378 165.894C632.323 166.182 632.138 166.434 631.823 166.649L631.178 167.087C630.891 167.282 630.603 167.352 630.314 167.297C630.025 167.242 629.774 167.056 629.559 166.741L619.357 151.732L608.391 159.187L617.95 173.25C618.164 173.565 618.244 173.867 618.189 174.156C618.134 174.445 617.949 174.697 617.633 174.911L616.988 175.35C616.701 175.544 616.414 175.614 616.125 175.559C615.836 175.504 615.584 175.319 615.37 175.004L605.81 160.941L594.414 168.688L604.85 184.041C605.065 184.356 605.144 184.658 605.089 184.947C605.034 185.236 604.849 185.488 604.534 185.702L603.889 186.141C603.602 186.336 603.314 186.405 603.025 186.35C602.736 186.295 602.485 186.11 602.27 185.795L590.635 168.679Z" fill="#202020"/>
<path d="M620.672 219.553C619.5 217.001 618.911 214.64 618.905 212.468C618.914 210.327 619.347 208.488 620.205 206.95C621.063 205.411 622.201 204.278 623.622 203.549C623.874 203.434 624.138 203.427 624.413 203.529C624.689 203.631 624.892 203.824 625.023 204.108L625.457 205.053C625.601 205.368 625.615 205.647 625.499 205.892C625.396 206.168 625.227 206.379 624.989 206.526C624.165 207.058 623.464 207.856 622.885 208.923C622.339 209.975 622.063 211.285 622.057 212.851C622.083 214.403 622.567 216.203 623.507 218.251C624.925 221.338 626.511 223.337 628.265 224.249C630.05 225.145 631.888 225.16 633.778 224.292C635.038 223.713 635.872 222.872 636.281 221.768C636.736 220.682 636.915 219.245 636.819 217.458C636.755 215.657 636.558 213.401 636.229 210.691C635.926 208.122 635.82 205.939 635.911 204.142C636.033 202.332 636.486 200.826 637.27 199.627C638.069 198.459 639.335 197.477 641.067 196.681C642.674 195.943 644.303 195.71 645.953 195.982C647.636 196.239 649.224 196.998 650.718 198.257C652.226 199.548 653.516 201.359 654.586 203.69C655.44 205.549 655.933 207.287 656.066 208.905C656.198 210.522 656.049 211.983 655.618 213.288C655.219 214.577 654.639 215.683 653.88 216.604C653.152 217.511 652.338 218.189 651.439 218.641C651.218 218.742 650.962 218.764 650.669 218.708C650.408 218.637 650.197 218.429 650.038 218.082L649.604 217.137C649.532 216.98 649.501 216.746 649.511 216.436C649.536 216.158 649.723 215.9 650.072 215.663C651.56 214.751 652.468 213.323 652.796 211.379C653.17 209.453 652.822 207.324 651.751 204.993C650.681 202.661 649.348 200.965 647.755 199.904C646.161 198.843 644.388 198.761 642.435 199.658C641.174 200.237 640.287 201.045 639.772 202.083C639.288 203.106 639.056 204.471 639.078 206.178C639.13 207.871 639.308 210.002 639.61 212.572C639.94 215.281 640.081 217.582 640.033 219.473C639.986 221.364 639.585 222.94 638.83 224.203C638.106 225.451 636.878 226.473 635.145 227.269C633.223 228.151 631.361 228.415 629.558 228.061C627.801 227.723 626.155 226.839 624.62 225.408C623.116 223.962 621.801 222.01 620.672 219.553Z" fill="#202020"/>
<path d="M638.724 266.864C637.997 264.152 637.813 261.725 638.172 259.583C638.54 257.474 639.276 255.734 640.38 254.361C641.484 252.989 642.797 252.063 644.319 251.583C644.587 251.511 644.848 251.549 645.103 251.696C645.358 251.843 645.526 252.067 645.606 252.369L645.876 253.373C645.965 253.708 645.932 253.986 645.776 254.208C645.629 254.462 645.426 254.642 645.167 254.748C644.265 255.133 643.44 255.803 642.691 256.757C641.975 257.702 641.483 258.947 641.215 260.49C640.98 262.025 641.154 263.88 641.737 266.057C642.616 269.338 643.844 271.575 645.42 272.768C647.029 273.952 648.838 274.275 650.847 273.736C652.187 273.378 653.151 272.689 653.739 271.67C654.37 270.675 654.788 269.289 654.993 267.511C655.232 265.725 655.417 263.468 655.548 260.741C655.681 258.157 655.943 255.987 656.334 254.232C656.759 252.467 657.458 251.059 658.433 250.009C659.416 248.992 660.829 248.236 662.671 247.743C664.378 247.285 666.023 247.329 667.605 247.874C669.22 248.41 670.658 249.425 671.919 250.917C673.189 252.443 674.157 254.445 674.821 256.923C675.35 258.899 675.544 260.695 675.403 262.312C675.262 263.929 674.87 265.344 674.226 266.557C673.615 267.761 672.858 268.754 671.955 269.534C671.085 270.306 670.169 270.838 669.207 271.132C668.972 271.195 668.716 271.174 668.436 271.069C668.19 270.956 668.018 270.715 667.92 270.346L667.65 269.342C667.606 269.174 667.614 268.939 667.676 268.635C667.747 268.365 667.975 268.142 668.359 267.968C669.979 267.318 671.114 266.063 671.764 264.202C672.457 262.366 672.471 260.208 671.807 257.73C671.143 255.252 670.115 253.357 668.722 252.043C667.329 250.729 665.595 250.351 663.518 250.907C662.179 251.266 661.168 251.914 660.486 252.85C659.837 253.778 659.38 255.085 659.114 256.771C658.882 258.448 658.699 260.579 658.566 263.163C658.435 265.889 658.187 268.181 657.823 270.037C657.459 271.893 656.799 273.38 655.842 274.498C654.919 275.606 653.537 276.407 651.695 276.901C649.653 277.448 647.772 277.396 646.054 276.743C644.379 276.116 642.905 274.967 641.632 273.299C640.393 271.621 639.423 269.476 638.724 266.864Z" fill="#202020"/>
<path d="M638.287 382.31C638.329 381.966 638.466 381.703 638.697 381.522C638.929 381.341 639.217 381.271 639.561 381.313L694.276 387.984C694.62 388.026 694.883 388.163 695.064 388.394C695.245 388.626 695.315 388.914 695.273 389.258L695.166 390.136C695.124 390.48 694.987 390.742 694.755 390.924C694.524 391.105 694.236 391.175 693.892 391.133L639.177 384.462C638.833 384.42 638.57 384.283 638.389 384.051C638.208 383.82 638.138 383.532 638.18 383.188L638.287 382.31Z" fill="#202020"/>
<path d="M639.475 433.235C639.587 432.907 639.774 432.677 640.038 432.547C640.302 432.417 640.598 432.407 640.926 432.519L673.186 443.445C673.547 443.567 673.793 443.76 673.923 444.024C674.053 444.288 674.063 444.584 673.952 444.912L667.513 463.923C667.39 464.284 667.197 464.53 666.934 464.66C666.67 464.791 666.357 464.795 665.996 464.672L665.257 464.422C664.929 464.311 664.7 464.123 664.569 463.86C664.439 463.596 664.435 463.284 664.558 462.922L670.313 445.931L657.064 441.443L651.642 457.45C651.52 457.811 651.327 458.057 651.063 458.187C650.8 458.318 650.487 458.322 650.126 458.199L649.387 457.949C649.059 457.838 648.83 457.65 648.699 457.387C648.569 457.123 648.565 456.81 648.687 456.449L654.109 440.442L639.875 435.621C639.547 435.51 639.317 435.323 639.187 435.059C639.057 434.795 639.053 434.483 639.175 434.122L639.475 433.235Z" fill="#202020"/>
<path d="M622.417 477.758C622.568 477.446 622.782 477.241 623.06 477.144C623.338 477.048 623.633 477.074 623.945 477.225L654.665 492.054C654.977 492.205 655.182 492.419 655.279 492.697C655.376 492.974 655.349 493.269 655.198 493.582L654.769 494.471C654.618 494.784 654.404 494.988 654.126 495.085C653.848 495.182 653.553 495.155 653.241 495.004L622.521 480.175C622.209 480.025 622.004 479.811 621.907 479.533C621.81 479.255 621.837 478.96 621.988 478.648L622.417 477.758Z" fill="#202020"/>
<path d="M606.116 507.957C606.303 507.665 606.54 507.488 606.828 507.425C607.115 507.363 607.405 507.425 607.696 507.612L634.742 524.97L640.303 516.305C640.49 516.013 640.727 515.836 641.015 515.773C641.302 515.71 641.592 515.773 641.883 515.96L642.54 516.381C642.861 516.587 643.053 516.834 643.115 517.121C643.178 517.408 643.116 517.698 642.928 517.99L630.065 538.033C629.859 538.354 629.612 538.546 629.325 538.608C629.037 538.671 628.733 538.6 628.412 538.394L627.756 537.972C627.464 537.785 627.287 537.548 627.224 537.26C627.162 536.973 627.233 536.669 627.439 536.348L632.972 527.727L605.927 510.369C605.635 510.182 605.458 509.945 605.395 509.657C605.333 509.37 605.404 509.066 605.61 508.745L606.116 507.957Z" fill="#202020"/>
<path d="M584.005 539.936C584.239 539.681 584.503 539.546 584.797 539.534C585.09 539.521 585.365 539.631 585.621 539.866L610.736 562.872C611.017 563.13 611.164 563.406 611.177 563.7C611.19 563.994 611.079 564.268 610.845 564.524L610.107 565.329C609.873 565.585 609.634 565.718 609.389 565.729C609.144 565.739 608.984 565.734 608.91 565.713L574.323 560.051L595.527 579.475C595.808 579.733 595.955 580.009 595.968 580.302C595.981 580.596 595.87 580.871 595.636 581.127L595.004 581.817C594.746 582.098 594.47 582.245 594.176 582.258C593.883 582.271 593.595 582.148 593.314 581.891L568.237 558.919C567.982 558.685 567.834 558.409 567.796 558.092C567.783 557.798 567.894 557.523 568.128 557.268L568.901 556.424C569.135 556.168 569.374 556.035 569.619 556.025C569.841 556.039 570.001 556.045 570.098 556.04L604.574 561.67L583.408 542.281C583.152 542.047 583.018 541.783 583.005 541.489C582.992 541.195 583.115 540.908 583.372 540.627L584.005 539.936Z" fill="#202020"/>
<path d="M544.568 579.917C544.843 579.706 545.127 579.62 545.418 579.659C545.71 579.698 545.961 579.854 546.172 580.13L566.881 607.17C567.113 607.473 567.21 607.77 567.171 608.062C567.132 608.353 566.976 608.605 566.7 608.815L550.6 621.146C550.297 621.378 550 621.475 549.708 621.436C549.417 621.397 549.155 621.227 548.923 620.924L548.449 620.305C548.238 620.03 548.152 619.746 548.191 619.455C548.229 619.163 548.4 618.901 548.703 618.669L563.111 607.635L555.048 597.108L541.548 607.446C541.246 607.678 540.949 607.775 540.657 607.736C540.365 607.698 540.104 607.527 539.872 607.224L539.397 606.605C539.187 606.33 539.101 606.046 539.139 605.755C539.178 605.463 539.349 605.201 539.651 604.969L553.151 594.63L544.772 583.69L530.034 594.978C529.731 595.21 529.434 595.306 529.143 595.268C528.851 595.229 528.589 595.058 528.357 594.756L527.883 594.136C527.672 593.861 527.586 593.578 527.625 593.286C527.664 592.994 527.834 592.733 528.137 592.501L544.568 579.917Z" fill="#202020"/>
<path d="M495.472 612.781C497.954 611.467 500.279 610.746 502.447 610.617C504.584 610.505 506.445 610.833 508.029 611.603C509.614 612.372 510.81 613.445 511.617 614.822C511.747 615.067 511.769 615.33 511.682 615.611C511.596 615.892 511.415 616.106 511.139 616.252L510.22 616.739C509.914 616.901 509.635 616.931 509.385 616.828C509.104 616.742 508.883 616.584 508.722 616.355C508.145 615.562 507.308 614.907 506.21 614.39C505.129 613.904 503.806 613.702 502.242 613.785C500.694 613.899 498.924 614.484 496.933 615.538C493.931 617.129 492.024 618.825 491.214 620.627C490.419 622.46 490.509 624.296 491.482 626.134C492.131 627.359 493.018 628.145 494.143 628.491C495.253 628.883 496.698 628.981 498.476 628.784C500.271 628.618 502.512 628.294 505.199 627.813C507.748 627.365 509.921 627.136 511.72 627.125C513.535 627.144 515.063 627.511 516.305 628.227C517.516 628.958 518.568 630.166 519.46 631.851C520.288 633.414 520.613 635.026 520.435 636.69C520.273 638.384 519.605 640.013 518.432 641.575C517.229 643.154 515.494 644.544 513.227 645.745C511.419 646.702 509.712 647.293 508.104 647.517C506.497 647.741 505.03 647.674 503.703 647.318C502.393 646.992 501.256 646.476 500.294 645.769C499.348 645.094 498.624 644.32 498.123 643.448C498.009 643.233 497.972 642.978 498.012 642.682C498.067 642.418 498.264 642.196 498.601 642.017L499.52 641.531C499.673 641.449 499.905 641.405 500.215 641.398C500.494 641.407 500.762 641.579 501.018 641.914C502.013 643.348 503.49 644.175 505.449 644.392C507.394 644.657 509.499 644.189 511.766 642.988C514.033 641.787 515.651 640.361 516.621 638.71C517.59 637.059 517.572 635.284 516.566 633.385C515.916 632.159 515.059 631.319 513.994 630.863C512.945 630.438 511.569 630.284 509.866 630.401C508.179 630.55 506.062 630.847 503.513 631.295C500.826 631.777 498.537 632.047 496.647 632.107C494.756 632.167 493.16 631.856 491.856 631.173C490.569 630.521 489.48 629.352 488.587 627.667C487.598 625.799 487.229 623.954 487.481 622.134C487.718 620.36 488.508 618.667 489.85 617.054C491.209 615.471 493.083 614.047 495.472 612.781Z" fill="#202020"/>
<path d="M449.258 633.478C451.925 632.599 454.337 632.278 456.496 632.516C458.622 632.764 460.401 633.401 461.834 634.425C463.267 635.45 464.265 636.708 464.83 638.201C464.917 638.465 464.894 638.728 464.762 638.99C464.63 639.253 464.415 639.433 464.119 639.531L463.131 639.856C462.802 639.965 462.522 639.947 462.293 639.804C462.03 639.672 461.839 639.479 461.719 639.227C461.284 638.348 460.568 637.562 459.573 636.868C458.589 636.207 457.318 635.786 455.762 635.605C454.217 635.457 452.374 635.736 450.234 636.441C447.008 637.505 444.843 638.857 443.741 640.497C442.65 642.171 442.431 643.995 443.082 645.971C443.516 647.288 444.258 648.211 445.309 648.741C446.337 649.315 447.745 649.654 449.531 649.758C451.329 649.896 453.592 649.953 456.322 649.93C458.909 649.916 461.09 650.055 462.865 650.347C464.651 650.671 466.096 651.289 467.2 652.203C468.271 653.127 469.105 654.495 469.702 656.306C470.255 657.985 470.305 659.63 469.85 661.24C469.406 662.883 468.474 664.376 467.055 665.719C465.604 667.074 463.66 668.153 461.223 668.955C459.281 669.596 457.498 669.891 455.876 669.842C454.254 669.792 452.819 669.48 451.571 668.906C450.334 668.365 449.3 667.665 448.47 666.807C447.651 665.982 447.067 665.098 446.72 664.154C446.644 663.923 446.65 663.666 446.739 663.381C446.838 663.129 447.069 662.944 447.431 662.824L448.419 662.499C448.584 662.445 448.819 662.44 449.126 662.485C449.4 662.54 449.635 662.755 449.831 663.128C450.571 664.71 451.888 665.772 453.783 666.316C455.656 666.903 457.81 666.795 460.247 665.992C462.683 665.189 464.518 664.055 465.751 662.591C466.983 661.126 467.263 659.373 466.591 657.331C466.157 656.014 465.453 655.042 464.479 654.414C463.517 653.818 462.186 653.436 460.487 653.265C458.8 653.128 456.662 653.066 454.075 653.079C451.345 653.103 449.043 652.985 447.17 652.727C445.296 652.468 443.774 651.893 442.604 651.001C441.445 650.142 440.567 648.807 439.97 646.996C439.308 644.988 439.254 643.108 439.808 641.355C440.34 639.647 441.404 638.11 442.998 636.746C444.603 635.414 446.69 634.324 449.258 633.478Z" fill="#202020"/>
<path d="M384.161 637.994C384.506 637.956 384.792 638.03 385.022 638.214C385.251 638.398 385.385 638.663 385.422 639.007L391.393 693.803C391.431 694.148 391.357 694.435 391.173 694.664C390.989 694.893 390.724 695.027 390.38 695.064L389.501 695.16C389.156 695.197 388.869 695.124 388.64 694.94C388.411 694.756 388.277 694.491 388.24 694.147L382.269 639.351C382.231 639.006 382.305 638.719 382.489 638.49C382.673 638.261 382.937 638.127 383.282 638.09L384.161 637.994Z" fill="#202020"/>
</svg>
