<svg width="209" height="28" viewBox="0 0 209 28" fill="none" xmlns="http://www.w3.org/2000/svg">
<path d="M2.84148 3.916C2.84148 3.604 2.90148 3.308 3.02148 3.028C3.14148 2.748 3.30148 2.504 3.50148 2.296C3.70948 2.08 3.94948 1.912 4.22148 1.792C4.50148 1.672 4.79748 1.612 5.10948 1.612H12.1415L11.9375 2.452H5.10948C4.90948 2.452 4.72148 2.492 4.54548 2.572C4.36948 2.644 4.21348 2.748 4.07748 2.884C3.94948 3.012 3.84548 3.168 3.76548 3.352C3.69348 3.528 3.65748 3.716 3.65748 3.916C3.65748 4.116 3.69348 4.308 3.76548 4.492C3.84548 4.668 3.94948 4.824 4.07748 4.96C4.21348 5.096 4.36948 5.204 4.54548 5.284C4.72148 5.356 4.90948 5.392 5.10948 5.392H10.9655C11.2775 5.392 11.5735 5.452 11.8535 5.572C12.1335 5.692 12.3735 5.856 12.5735 6.064C12.7815 6.272 12.9455 6.516 13.0655 6.796C13.1855 7.076 13.2455 7.376 13.2455 7.696C13.2455 8.016 13.1855 8.316 13.0655 8.596C12.9455 8.876 12.7815 9.12 12.5735 9.328C12.3735 9.536 12.1335 9.7 11.8535 9.82C11.5735 9.94 11.2775 10 10.9655 10H3.94548L4.14948 9.16H10.9655C11.1655 9.16 11.3535 9.124 11.5295 9.052C11.7055 8.972 11.8575 8.868 11.9855 8.74C12.1215 8.604 12.2255 8.448 12.2975 8.272C12.3775 8.088 12.4175 7.896 12.4175 7.696C12.4175 7.488 12.3775 7.296 12.2975 7.12C12.2255 6.944 12.1215 6.788 11.9855 6.652C11.8575 6.516 11.7055 6.412 11.5295 6.34C11.3535 6.26 11.1655 6.22 10.9655 6.22H5.10948C4.79748 6.22 4.50148 6.16 4.22148 6.04C3.94948 5.92 3.70948 5.756 3.50148 5.548C3.30148 5.34 3.14148 5.096 3.02148 4.816C2.90148 4.536 2.84148 4.236 2.84148 3.916ZM15.1401 1.612H25.2681L25.0641 2.452H20.5161V10H19.6881V2.452H14.9361L15.1401 1.612ZM28.1657 6.472H35.7617C36.0337 6.472 36.2897 6.42 36.5297 6.316C36.7697 6.204 36.9777 6.06 37.1537 5.884C37.3377 5.7 37.4817 5.484 37.5857 5.236C37.6897 4.988 37.7417 4.728 37.7417 4.456C37.7417 4.176 37.6897 3.916 37.5857 3.676C37.4817 3.436 37.3377 3.224 37.1537 3.04C36.9777 2.856 36.7697 2.712 36.5297 2.608C36.2897 2.504 36.0337 2.452 35.7617 2.452H28.1657V1.612H35.7617C36.1457 1.612 36.5097 1.688 36.8537 1.84C37.1977 1.984 37.4937 2.188 37.7417 2.452C37.9977 2.708 38.1977 3.008 38.3417 3.352C38.4937 3.696 38.5697 4.064 38.5697 4.456C38.5697 4.848 38.4937 5.216 38.3417 5.56C38.1977 5.904 37.9977 6.208 37.7417 6.472C37.4937 6.728 37.1977 6.932 36.8537 7.084C36.5097 7.228 36.1457 7.3 35.7617 7.3H34.6097L38.3057 10H36.9377L33.2297 7.3H28.9937V10H28.1657V6.472ZM41.7595 1.612H42.5875V10H41.7595V1.612ZM45.7106 1.612H46.6466L50.8226 9.208L55.0106 1.612H55.9466L51.3386 10H50.3186L45.7106 1.612ZM66.8902 5.392L66.6862 6.22H59.4622V9.16H69.0142L68.8102 10H58.6462V5.392H66.8902ZM58.6462 1.612H69.0142L68.8102 2.452H58.6462V1.612ZM88.0438 5.392L87.8398 6.22H79.5598V10H78.7438V5.392H88.0438ZM78.7438 1.612H89.1118L88.9078 2.452H78.7438V1.612ZM93.7973 1.612H99.6413C99.9533 1.612 100.249 1.672 100.529 1.792C100.809 1.912 101.049 2.08 101.249 2.296C101.457 2.504 101.621 2.748 101.741 3.028C101.861 3.308 101.921 3.604 101.921 3.916V7.696C101.921 8.016 101.861 8.316 101.741 8.596C101.621 8.876 101.457 9.12 101.249 9.328C101.049 9.536 100.809 9.7 100.529 9.82C100.249 9.94 99.9533 10 99.6413 10H93.7973C93.4853 10 93.1893 9.94 92.9093 9.82C92.6293 9.7 92.3853 9.536 92.1773 9.328C91.9773 9.12 91.8173 8.876 91.6973 8.596C91.5773 8.316 91.5173 8.016 91.5173 7.696V3.916C91.5173 3.604 91.5773 3.308 91.6973 3.028C91.8173 2.748 91.9773 2.504 92.1773 2.296C92.3853 2.08 92.6293 1.912 92.9093 1.792C93.1893 1.672 93.4853 1.612 93.7973 1.612ZM92.3453 7.696C92.3453 7.896 92.3813 8.088 92.4533 8.272C92.5333 8.448 92.6373 8.604 92.7653 8.74C92.9013 8.868 93.0573 8.972 93.2333 9.052C93.4093 9.132 93.5973 9.172 93.7973 9.172H99.6413C99.8413 9.172 100.029 9.132 100.205 9.052C100.389 8.972 100.545 8.868 100.673 8.74C100.809 8.604 100.913 8.448 100.985 8.272C101.065 8.088 101.105 7.896 101.105 7.696V3.916C101.105 3.716 101.065 3.528 100.985 3.352C100.913 3.168 100.809 3.012 100.673 2.884C100.545 2.748 100.389 2.644 100.205 2.572C100.029 2.492 99.8413 2.452 99.6413 2.452H93.7973C93.5973 2.452 93.4093 2.492 93.2333 2.572C93.0573 2.644 92.9013 2.748 92.7653 2.884C92.6373 3.012 92.5333 3.168 92.4533 3.352C92.3813 3.528 92.3453 3.716 92.3453 3.916V7.696ZM105.006 6.472H112.602C112.874 6.472 113.13 6.42 113.37 6.316C113.61 6.204 113.818 6.06 113.994 5.884C114.178 5.7 114.322 5.484 114.426 5.236C114.53 4.988 114.582 4.728 114.582 4.456C114.582 4.176 114.53 3.916 114.426 3.676C114.322 3.436 114.178 3.224 113.994 3.04C113.818 2.856 113.61 2.712 113.37 2.608C113.13 2.504 112.874 2.452 112.602 2.452H105.006V1.612H112.602C112.986 1.612 113.35 1.688 113.694 1.84C114.038 1.984 114.334 2.188 114.582 2.452C114.838 2.708 115.038 3.008 115.182 3.352C115.334 3.696 115.41 4.064 115.41 4.456C115.41 4.848 115.334 5.216 115.182 5.56C115.038 5.904 114.838 6.208 114.582 6.472C114.334 6.728 114.038 6.932 113.694 7.084C113.35 7.228 112.986 7.3 112.602 7.3H111.45L115.146 10H113.778L110.07 7.3H105.834V10H105.006V6.472ZM134.403 5.392L134.199 6.22H125.919V10H125.103V5.392H134.403ZM125.103 1.612H135.471L135.267 2.452H125.103V1.612ZM138.72 1.612H139.548V10H138.72V1.612ZM142.851 1.612H152.979L152.775 2.452H148.227V10H147.399V2.452H142.647L142.851 1.612ZM156.541 1.612L165.289 8.92V1.612H166.117V10H165.289L156.541 2.692V10H155.713V1.612H156.541ZM178.183 5.392L177.979 6.22H170.755V9.16H180.307L180.103 10H169.939V5.392H178.183ZM169.939 1.612H180.307L180.103 2.452H169.939V1.612ZM182.994 3.916C182.994 3.604 183.054 3.308 183.174 3.028C183.294 2.748 183.454 2.504 183.654 2.296C183.862 2.08 184.102 1.912 184.374 1.792C184.654 1.672 184.95 1.612 185.262 1.612H192.294L192.09 2.452H185.262C185.062 2.452 184.874 2.492 184.698 2.572C184.522 2.644 184.366 2.748 184.23 2.884C184.102 3.012 183.998 3.168 183.918 3.352C183.846 3.528 183.81 3.716 183.81 3.916C183.81 4.116 183.846 4.308 183.918 4.492C183.998 4.668 184.102 4.824 184.23 4.96C184.366 5.096 184.522 5.204 184.698 5.284C184.874 5.356 185.062 5.392 185.262 5.392H191.118C191.43 5.392 191.726 5.452 192.006 5.572C192.286 5.692 192.526 5.856 192.726 6.064C192.934 6.272 193.098 6.516 193.218 6.796C193.338 7.076 193.398 7.376 193.398 7.696C193.398 8.016 193.338 8.316 193.218 8.596C193.098 8.876 192.934 9.12 192.726 9.328C192.526 9.536 192.286 9.7 192.006 9.82C191.726 9.94 191.43 10 191.118 10H184.098L184.302 9.16H191.118C191.318 9.16 191.506 9.124 191.682 9.052C191.858 8.972 192.01 8.868 192.138 8.74C192.274 8.604 192.378 8.448 192.45 8.272C192.53 8.088 192.57 7.896 192.57 7.696C192.57 7.488 192.53 7.296 192.45 7.12C192.378 6.944 192.274 6.788 192.138 6.652C192.01 6.516 191.858 6.412 191.682 6.34C191.506 6.26 191.318 6.22 191.118 6.22H185.262C184.95 6.22 184.654 6.16 184.374 6.04C184.102 5.92 183.862 5.756 183.654 5.548C183.454 5.34 183.294 5.096 183.174 4.816C183.054 4.536 182.994 4.236 182.994 3.916ZM195.896 3.916C195.896 3.604 195.956 3.308 196.076 3.028C196.196 2.748 196.356 2.504 196.556 2.296C196.764 2.08 197.004 1.912 197.276 1.792C197.556 1.672 197.852 1.612 198.164 1.612H205.196L204.992 2.452H198.164C197.964 2.452 197.776 2.492 197.6 2.572C197.424 2.644 197.268 2.748 197.132 2.884C197.004 3.012 196.9 3.168 196.82 3.352C196.748 3.528 196.712 3.716 196.712 3.916C196.712 4.116 196.748 4.308 196.82 4.492C196.9 4.668 197.004 4.824 197.132 4.96C197.268 5.096 197.424 5.204 197.6 5.284C197.776 5.356 197.964 5.392 198.164 5.392H204.02C204.332 5.392 204.628 5.452 204.908 5.572C205.188 5.692 205.428 5.856 205.628 6.064C205.836 6.272 206 6.516 206.12 6.796C206.24 7.076 206.3 7.376 206.3 7.696C206.3 8.016 206.24 8.316 206.12 8.596C206 8.876 205.836 9.12 205.628 9.328C205.428 9.536 205.188 9.7 204.908 9.82C204.628 9.94 204.332 10 204.02 10H197L197.204 9.16H204.02C204.22 9.16 204.408 9.124 204.584 9.052C204.76 8.972 204.912 8.868 205.04 8.74C205.176 8.604 205.28 8.448 205.352 8.272C205.432 8.088 205.472 7.896 205.472 7.696C205.472 7.488 205.432 7.296 205.352 7.12C205.28 6.944 205.176 6.788 205.04 6.652C204.912 6.516 204.76 6.412 204.584 6.34C204.408 6.26 204.22 6.22 204.02 6.22H198.164C197.852 6.22 197.556 6.16 197.276 6.04C197.004 5.92 196.764 5.756 196.556 5.548C196.356 5.34 196.196 5.096 196.076 4.816C195.956 4.536 195.896 4.236 195.896 3.916ZM48.2046 18.392L48.0006 19.22H40.7766V22.16H50.3286L50.1246 23H39.9606V18.392H48.2046ZM39.9606 14.612H50.3286L50.1246 15.452H39.9606V14.612ZM54.3962 14.612L58.1762 18.236L61.9562 14.612H63.1922L58.7762 18.812L63.1922 23H61.9682L58.1762 19.376L54.3962 23H53.1722L57.5762 18.812L53.1722 14.612H54.3962ZM68.1505 14.612H75.1825L74.9785 15.452H68.1505C67.9505 15.452 67.7625 15.492 67.5865 15.572C67.4185 15.644 67.2665 15.748 67.1305 15.884C67.0025 16.012 66.8985 16.168 66.8185 16.352C66.7465 16.528 66.7105 16.716 66.7105 16.916V20.696C66.7105 20.896 66.7465 21.088 66.8185 21.272C66.8985 21.448 67.0025 21.604 67.1305 21.74C67.2665 21.868 67.4225 21.972 67.5985 22.052C67.7745 22.124 67.9625 22.16 68.1625 22.16H76.2505L76.0465 23H68.1625C67.8505 23 67.5545 22.94 67.2745 22.82C66.9945 22.7 66.7505 22.536 66.5425 22.328C66.3425 22.12 66.1825 21.876 66.0625 21.596C65.9425 21.316 65.8825 21.016 65.8825 20.696V16.916C65.8825 16.596 65.9425 16.296 66.0625 16.016C66.1825 15.736 66.3425 15.492 66.5425 15.284C66.7505 15.076 66.9905 14.912 67.2625 14.792C67.5425 14.672 67.8385 14.612 68.1505 14.612ZM87.064 18.392L86.86 19.22H79.636V22.16H89.188L88.984 23H78.82V18.392H87.064ZM78.82 14.612H89.188L88.984 15.452H78.82V14.612ZM93.6399 14.612V22.16H103.192L102.988 23H92.8239V14.612H93.6399ZM106.824 14.612V22.16H116.376L116.172 23H106.008V14.612H106.824ZM127.728 18.392L127.524 19.22H120.3V22.16H129.852L129.648 23H119.484V18.392H127.728ZM119.484 14.612H129.852L129.648 15.452H119.484V14.612ZM133.437 14.612L142.185 21.92V14.612H143.013V23H142.185L133.437 15.692V23H132.609V14.612H133.437ZM148.108 14.612H155.14L154.936 15.452H148.108C147.908 15.452 147.72 15.492 147.544 15.572C147.376 15.644 147.224 15.748 147.088 15.884C146.96 16.012 146.856 16.168 146.776 16.352C146.704 16.528 146.668 16.716 146.668 16.916V20.696C146.668 20.896 146.704 21.088 146.776 21.272C146.856 21.448 146.96 21.604 147.088 21.74C147.224 21.868 147.38 21.972 147.556 22.052C147.732 22.124 147.92 22.16 148.12 22.16H156.208L156.004 23H148.12C147.808 23 147.512 22.94 147.232 22.82C146.952 22.7 146.708 22.536 146.5 22.328C146.3 22.12 146.14 21.876 146.02 21.596C145.9 21.316 145.84 21.016 145.84 20.696V16.916C145.84 16.596 145.9 16.296 146.02 16.016C146.14 15.736 146.3 15.492 146.5 15.284C146.708 15.076 146.948 14.912 147.22 14.792C147.5 14.672 147.796 14.612 148.108 14.612ZM167.021 18.392L166.817 19.22H159.593V22.16H169.145L168.941 23H158.777V18.392H167.021ZM158.777 14.612H169.145L168.941 15.452H158.777V14.612Z" fill="white"/>
</svg>
