<svg width="81" height="12" viewBox="0 0 81 12" fill="none" xmlns="http://www.w3.org/2000/svg">
<path d="M1.404 1.612H2.34L6.516 9.208L10.704 1.612H11.64L7.032 10H6.012L1.404 1.612ZM14.2223 1.612H15.0503V7.696C15.0503 7.896 15.0863 8.088 15.1583 8.272C15.2383 8.448 15.3423 8.604 15.4703 8.74C15.6063 8.868 15.7623 8.972 15.9383 9.052C16.1143 9.132 16.3023 9.172 16.5023 9.172H22.3463C22.5463 9.172 22.7343 9.132 22.9103 9.052C23.0943 8.972 23.2503 8.868 23.3783 8.74C23.5143 8.604 23.6183 8.448 23.6903 8.272C23.7703 8.088 23.8103 7.896 23.8103 7.696V1.612H24.6263V7.696C24.6263 8.016 24.5663 8.316 24.4463 8.596C24.3263 8.876 24.1623 9.12 23.9543 9.328C23.7543 9.536 23.5143 9.7 23.2343 9.82C22.9543 9.94 22.6583 10 22.3463 10H16.5023C16.1903 10 15.8943 9.94 15.6143 9.82C15.3343 9.7 15.0903 9.536 14.8823 9.328C14.6823 9.12 14.5223 8.876 14.4023 8.596C14.2823 8.316 14.2223 8.016 14.2223 7.696V1.612ZM28.5383 1.612V9.16H38.0903L37.8863 10H27.7223V1.612H28.5383ZM42.6583 1.612H49.6903L49.4863 2.452H42.6583C42.4583 2.452 42.2703 2.492 42.0943 2.572C41.9263 2.644 41.7743 2.748 41.6383 2.884C41.5103 3.012 41.4063 3.168 41.3263 3.352C41.2543 3.528 41.2183 3.716 41.2183 3.916V7.696C41.2183 7.896 41.2543 8.088 41.3263 8.272C41.4063 8.448 41.5103 8.604 41.6383 8.74C41.7743 8.868 41.9303 8.972 42.1063 9.052C42.2823 9.124 42.4703 9.16 42.6703 9.16H50.7583L50.5543 10H42.6703C42.3583 10 42.0623 9.94 41.7823 9.82C41.5023 9.7 41.2583 9.536 41.0503 9.328C40.8503 9.12 40.6903 8.876 40.5703 8.596C40.4503 8.316 40.3903 8.016 40.3903 7.696V3.916C40.3903 3.596 40.4503 3.296 40.5703 3.016C40.6903 2.736 40.8503 2.492 41.0503 2.284C41.2583 2.076 41.4983 1.912 41.7703 1.792C42.0503 1.672 42.3463 1.612 42.6583 1.612ZM53.0466 1.612H53.8746V7.696C53.8746 7.896 53.9106 8.088 53.9826 8.272C54.0626 8.448 54.1666 8.604 54.2946 8.74C54.4306 8.868 54.5866 8.972 54.7626 9.052C54.9386 9.132 55.1266 9.172 55.3266 9.172H61.1706C61.3706 9.172 61.5586 9.132 61.7346 9.052C61.9186 8.972 62.0746 8.868 62.2026 8.74C62.3386 8.604 62.4426 8.448 62.5146 8.272C62.5946 8.088 62.6346 7.896 62.6346 7.696V1.612H63.4506V7.696C63.4506 8.016 63.3906 8.316 63.2706 8.596C63.1506 8.876 62.9866 9.12 62.7786 9.328C62.5786 9.536 62.3386 9.7 62.0586 9.82C61.7786 9.94 61.4826 10 61.1706 10H55.3266C55.0146 10 54.7186 9.94 54.4386 9.82C54.1586 9.7 53.9146 9.536 53.7066 9.328C53.5066 9.12 53.3466 8.876 53.2266 8.596C53.1066 8.316 53.0466 8.016 53.0466 7.696V1.612ZM67.6558 1.612L76.4038 8.92V1.612H77.2318V10H76.4038L67.6558 2.692V10H66.8278V1.612H67.6558Z" fill="white"/>
<path d="M1.404 1.612V1.212H0.727873L1.05342 1.80459L1.404 1.612ZM2.34 1.612L2.69052 1.4193L2.57656 1.212H2.34V1.612ZM6.516 9.208L6.16548 9.4007L6.5155 10.0374L6.86629 9.40113L6.516 9.208ZM10.704 1.612V1.212H10.4678L10.3537 1.41887L10.704 1.612ZM11.64 1.612L11.9906 1.80459L12.3161 1.212H11.64V1.612ZM7.032 10V10.4H7.26864L7.38258 10.1926L7.032 10ZM6.012 10L5.66142 10.1926L5.77536 10.4H6.012V10ZM1.404 2.012H2.34V1.212H1.404V2.012ZM1.98948 1.8047L6.16548 9.4007L6.86652 9.0153L2.69052 1.4193L1.98948 1.8047ZM6.86629 9.40113L11.0543 1.80513L10.3537 1.41887L6.16571 9.01487L6.86629 9.40113ZM10.704 2.012H11.64V1.212H10.704V2.012ZM11.2894 1.41941L6.68142 9.80741L7.38258 10.1926L11.9906 1.80459L11.2894 1.41941ZM7.032 9.6H6.012V10.4H7.032V9.6ZM6.36258 9.80741L1.75458 1.41941L1.05342 1.80459L5.66142 10.1926L6.36258 9.80741ZM14.2223 1.612V1.212H13.8223V1.612H14.2223ZM15.0503 1.612H15.4503V1.212H15.0503V1.612ZM15.1583 8.272L14.7858 8.41776L14.7898 8.42775L14.7942 8.43752L15.1583 8.272ZM15.4703 8.74L15.1791 9.01415L15.1874 9.02297L15.1962 9.03128L15.4703 8.74ZM15.9383 9.052L16.1039 8.68785L16.1039 8.68785L15.9383 9.052ZM22.9103 9.052L22.7508 8.68512L22.7448 8.68785L22.9103 9.052ZM23.3783 8.74L23.0955 8.45716L23.0955 8.45716L23.3783 8.74ZM23.6903 8.272L23.3234 8.11247L23.3201 8.12055L23.6903 8.272ZM23.8103 1.612V1.212H23.4103V1.612H23.8103ZM24.6263 1.612H25.0263V1.212H24.6263V1.612ZM24.4463 8.596L24.814 8.75357L24.814 8.75357L24.4463 8.596ZM23.9543 9.328L23.6714 9.0451L23.666 9.05076L23.9543 9.328ZM23.2343 9.82L23.3919 10.1877L23.3919 10.1877L23.2343 9.82ZM14.8823 9.328L14.594 9.6053L14.5995 9.61084L14.8823 9.328ZM14.4023 8.596L14.0347 8.75357L14.0347 8.75357L14.4023 8.596ZM14.2223 2.012H15.0503V1.212H14.2223V2.012ZM14.6503 1.612V7.696H15.4503V1.612H14.6503ZM14.6503 7.696C14.6503 7.94525 14.6954 8.18674 14.7858 8.41776L15.5308 8.12624C15.4772 7.98926 15.4503 7.84675 15.4503 7.696H14.6503ZM14.7942 8.43752C14.8917 8.65206 15.0199 8.84506 15.1791 9.01415L15.7616 8.46585C15.6648 8.36294 15.585 8.24394 15.5225 8.10648L14.7942 8.43752ZM15.1962 9.03128C15.3653 9.19042 15.5583 9.31863 15.7728 9.41615L16.1039 8.68785C15.9664 8.62537 15.8474 8.54558 15.7445 8.44872L15.1962 9.03128ZM15.7728 9.41615C16.0026 9.5206 16.2473 9.572 16.5023 9.572V8.772C16.3574 8.772 16.2261 8.7434 16.1039 8.68785L15.7728 9.41615ZM16.5023 9.572H22.3463V8.772H16.5023V9.572ZM22.3463 9.572C22.6014 9.572 22.8461 9.5206 23.0759 9.41615L22.7448 8.68785C22.6226 8.7434 22.4913 8.772 22.3463 8.772V9.572ZM23.0698 9.41883C23.2949 9.32099 23.4941 9.18998 23.6612 9.02284L23.0955 8.45716C23.0066 8.54602 22.8938 8.62301 22.7509 8.68517L23.0698 9.41883ZM23.6612 9.02284C23.8343 8.84972 23.9682 8.64919 24.0606 8.42345L23.3201 8.12055C23.2685 8.24681 23.1944 8.35828 23.0955 8.45716L23.6612 9.02284ZM24.0572 8.43149C24.159 8.19733 24.2103 7.95106 24.2103 7.696H23.4103C23.4103 7.84094 23.3817 7.97867 23.3235 8.11251L24.0572 8.43149ZM24.2103 7.696V1.612H23.4103V7.696H24.2103ZM23.8103 2.012H24.6263V1.212H23.8103V2.012ZM24.2263 1.612V7.696H25.0263V1.612H24.2263ZM24.2263 7.696C24.2263 7.96461 24.1763 8.21072 24.0787 8.43843L24.814 8.75357C24.9564 8.42128 25.0263 8.06739 25.0263 7.696H24.2263ZM24.0787 8.43843C23.978 8.67336 23.8422 8.87442 23.6715 9.04516L24.2372 9.61084C24.4825 9.36558 24.6747 9.07864 24.814 8.75357L24.0787 8.43843ZM23.666 9.05076C23.5052 9.21805 23.3104 9.35223 23.0768 9.45234L23.3919 10.1877C23.7183 10.0478 24.0035 9.85395 24.2427 9.60524L23.666 9.05076ZM23.0768 9.45234C22.8478 9.55048 22.6055 9.6 22.3463 9.6V10.4C22.7112 10.4 23.0609 10.3295 23.3919 10.1877L23.0768 9.45234ZM22.3463 9.6H16.5023V10.4H22.3463V9.6ZM16.5023 9.6C16.2432 9.6 16.0009 9.55048 15.7719 9.45234L15.4568 10.1877C15.7878 10.3295 16.1375 10.4 16.5023 10.4V9.6ZM15.7719 9.45234C15.537 9.35166 15.3359 9.21589 15.1652 9.04516L14.5995 9.61084C14.8448 9.85611 15.1317 10.0483 15.4568 10.1877L15.7719 9.45234ZM15.1707 9.05076C15.006 8.87944 14.8721 8.67658 14.77 8.43843L14.0347 8.75357C14.1726 9.07542 14.3587 9.36056 14.594 9.60524L15.1707 9.05076ZM14.77 8.43843C14.6724 8.21072 14.6223 7.96461 14.6223 7.696H13.8223C13.8223 8.06739 13.8923 8.42128 14.0347 8.75357L14.77 8.43843ZM14.6223 7.696V1.612H13.8223V7.696H14.6223ZM28.5383 1.612H28.9383V1.212H28.5383V1.612ZM28.5383 9.16H28.1383V9.56H28.5383V9.16ZM38.0903 9.16L38.479 9.2544L38.5991 8.76H38.0903V9.16ZM37.8863 10V10.4H38.2008L38.275 10.0944L37.8863 10ZM27.7223 10H27.3223V10.4H27.7223V10ZM27.7223 1.612V1.212H27.3223V1.612H27.7223ZM28.1383 1.612V9.16H28.9383V1.612H28.1383ZM28.5383 9.56H38.0903V8.76H28.5383V9.56ZM37.7016 9.0656L37.4976 9.9056L38.275 10.0944L38.479 9.2544L37.7016 9.0656ZM37.8863 9.6H27.7223V10.4H37.8863V9.6ZM28.1223 10V1.612H27.3223V10H28.1223ZM27.7223 2.012H28.5383V1.212H27.7223V2.012ZM49.6903 1.612L50.079 1.7064L50.1991 1.212H49.6903V1.612ZM49.4863 2.452V2.852H49.8008L49.875 2.5464L49.4863 2.452ZM42.0943 2.572L42.2519 2.93974L42.2598 2.93615L42.0943 2.572ZM41.6383 2.884L41.3555 2.60116L41.3555 2.60116L41.6383 2.884ZM41.3263 3.352L40.9594 3.19247L40.9561 3.20055L41.3263 3.352ZM41.3263 8.272L40.9538 8.41776L40.9577 8.42775L40.9622 8.43752L41.3263 8.272ZM41.6383 8.74L41.347 9.01415L41.3553 9.02297L41.3642 9.03128L41.6383 8.74ZM42.1063 9.052L41.9408 9.41615L41.9478 9.41932L41.9549 9.42222L42.1063 9.052ZM50.7583 9.16L51.147 9.2544L51.2671 8.76H50.7583V9.16ZM50.5543 10V10.4H50.8688L50.943 10.0944L50.5543 10ZM41.0503 9.328L40.7619 9.6053L40.7675 9.61084L41.0503 9.328ZM40.5703 8.596L40.2027 8.75357L40.2027 8.75357L40.5703 8.596ZM40.5703 3.016L40.938 3.17357L40.938 3.17357L40.5703 3.016ZM41.0503 2.284L40.7674 2.0011L40.762 2.00676L41.0503 2.284ZM41.7703 1.792L41.6127 1.42432L41.6089 1.42603L41.7703 1.792ZM42.6583 2.012H49.6903V1.212H42.6583V2.012ZM49.3016 1.5176L49.0976 2.3576L49.875 2.5464L50.079 1.7064L49.3016 1.5176ZM49.4863 2.052H42.6583V2.852H49.4863V2.052ZM42.6583 2.052C42.4032 2.052 42.1586 2.1034 41.9288 2.20785L42.2598 2.93615C42.382 2.8806 42.5134 2.852 42.6583 2.852V2.052ZM41.9367 2.20434C41.7196 2.29742 41.5255 2.43108 41.3555 2.60116L41.9212 3.16684C42.0231 3.06492 42.1331 2.99058 42.2519 2.93966L41.9367 2.20434ZM41.3555 2.60116C41.1883 2.76829 41.0573 2.96747 40.9595 3.19251L41.6931 3.51149C41.7553 3.36853 41.8323 3.25571 41.9212 3.16684L41.3555 2.60116ZM40.9561 3.20055C40.8634 3.42708 40.8183 3.66679 40.8183 3.916H41.6183C41.6183 3.76521 41.6452 3.62892 41.6965 3.50345L40.9561 3.20055ZM40.8183 3.916V7.696H41.6183V3.916H40.8183ZM40.8183 7.696C40.8183 7.94525 40.8634 8.18674 40.9538 8.41776L41.6988 8.12624C41.6452 7.98926 41.6183 7.84675 41.6183 7.696H40.8183ZM40.9622 8.43752C41.0597 8.65206 41.1879 8.84506 41.347 9.01415L41.9296 8.46585C41.8327 8.36294 41.7529 8.24394 41.6905 8.10648L40.9622 8.43752ZM41.3642 9.03128C41.5332 9.19042 41.7263 9.31863 41.9408 9.41615L42.2718 8.68785C42.1344 8.62537 42.0154 8.54558 41.9125 8.44872L41.3642 9.03128ZM41.9549 9.42222C42.1814 9.51489 42.4211 9.56 42.6703 9.56V8.76C42.5195 8.76 42.3832 8.73311 42.2578 8.68178L41.9549 9.42222ZM42.6703 9.56H50.7583V8.76H42.6703V9.56ZM50.3696 9.0656L50.1656 9.9056L50.943 10.0944L51.147 9.2544L50.3696 9.0656ZM50.5543 9.6H42.6703V10.4H50.5543V9.6ZM42.6703 9.6C42.4111 9.6 42.1689 9.55048 41.9399 9.45234L41.6247 10.1877C41.9558 10.3295 42.3055 10.4 42.6703 10.4V9.6ZM41.9399 9.45234C41.705 9.35166 41.5039 9.21589 41.3332 9.04516L40.7675 9.61084C41.0127 9.85611 41.2997 10.0483 41.6247 10.1877L41.9399 9.45234ZM41.3386 9.05076C41.1739 8.87944 41.04 8.67658 40.938 8.43843L40.2027 8.75357C40.3406 9.07542 40.5267 9.36056 40.762 9.60524L41.3386 9.05076ZM40.938 8.43843C40.8404 8.21072 40.7903 7.96461 40.7903 7.696H39.9903C39.9903 8.06739 40.0602 8.42128 40.2027 8.75357L40.938 8.43843ZM40.7903 7.696V3.916H39.9903V7.696H40.7903ZM40.7903 3.916C40.7903 3.64739 40.8404 3.40128 40.938 3.17357L40.2027 2.85843C40.0602 3.19072 39.9903 3.54461 39.9903 3.916H40.7903ZM40.938 3.17357C41.04 2.93542 41.1739 2.73256 41.3386 2.56124L40.762 2.00676C40.5267 2.25144 40.3406 2.53658 40.2027 2.85843L40.938 3.17357ZM41.3332 2.56684C41.5058 2.3942 41.7045 2.25822 41.9318 2.15797L41.6089 1.42603C41.2921 1.56578 41.0108 1.7578 40.7675 2.00116L41.3332 2.56684ZM41.9279 2.15966C42.1569 2.06152 42.3991 2.012 42.6583 2.012V1.212C42.2935 1.212 41.9438 1.28248 41.6127 1.42434L41.9279 2.15966ZM53.0466 1.612V1.212H52.6466V1.612H53.0466ZM53.8746 1.612H54.2746V1.212H53.8746V1.612ZM53.9826 8.272L53.6101 8.41776L53.614 8.42775L53.6184 8.43752L53.9826 8.272ZM54.2946 8.74L54.0033 9.01415L54.0116 9.02297L54.0204 9.03128L54.2946 8.74ZM54.7626 9.052L54.9281 8.68785L54.9281 8.68785L54.7626 9.052ZM61.7346 9.052L61.5751 8.68512L61.569 8.68785L61.7346 9.052ZM62.2026 8.74L61.9197 8.45716L61.9197 8.45716L62.2026 8.74ZM62.5146 8.272L62.1476 8.11247L62.1443 8.12055L62.5146 8.272ZM62.6346 1.612V1.212H62.2346V1.612H62.6346ZM63.4506 1.612H63.8506V1.212H63.4506V1.612ZM63.2706 8.596L63.6382 8.75357L63.6382 8.75357L63.2706 8.596ZM62.7786 9.328L62.4957 9.0451L62.4902 9.05076L62.7786 9.328ZM62.0586 9.82L62.2161 10.1877L62.2161 10.1877L62.0586 9.82ZM53.7066 9.328L53.4182 9.6053L53.4237 9.61084L53.7066 9.328ZM53.2266 8.596L52.8589 8.75357L52.8589 8.75357L53.2266 8.596ZM53.0466 2.012H53.8746V1.212H53.0466V2.012ZM53.4746 1.612V7.696H54.2746V1.612H53.4746ZM53.4746 7.696C53.4746 7.94525 53.5197 8.18674 53.6101 8.41776L54.3551 8.12624C54.3015 7.98926 54.2746 7.84675 54.2746 7.696H53.4746ZM53.6184 8.43752C53.7159 8.65206 53.8441 8.84506 54.0033 9.01415L54.5858 8.46585C54.489 8.36294 54.4092 8.24394 54.3467 8.10648L53.6184 8.43752ZM54.0204 9.03128C54.1895 9.19042 54.3825 9.31863 54.597 9.41615L54.9281 8.68785C54.7906 8.62537 54.6716 8.54558 54.5687 8.44872L54.0204 9.03128ZM54.597 9.41615C54.8268 9.5206 55.0715 9.572 55.3266 9.572V8.772C55.1816 8.772 55.0503 8.7434 54.9281 8.68785L54.597 9.41615ZM55.3266 9.572H61.1706V8.772H55.3266V9.572ZM61.1706 9.572C61.4256 9.572 61.6703 9.5206 61.9001 9.41615L61.569 8.68785C61.4468 8.7434 61.3155 8.772 61.1706 8.772V9.572ZM61.8941 9.41883C62.1191 9.32099 62.3183 9.18998 62.4854 9.02284L61.9197 8.45716C61.8309 8.54602 61.718 8.62301 61.5751 8.68517L61.8941 9.41883ZM62.4854 9.02284C62.6585 8.84972 62.7924 8.64919 62.8848 8.42345L62.1443 8.12055C62.0927 8.24681 62.0186 8.35828 61.9197 8.45716L62.4854 9.02284ZM62.8814 8.43149C62.9832 8.19733 63.0346 7.95106 63.0346 7.696H62.2346C62.2346 7.84094 62.2059 7.97867 62.1477 8.11251L62.8814 8.43149ZM63.0346 7.696V1.612H62.2346V7.696H63.0346ZM62.6346 2.012H63.4506V1.212H62.6346V2.012ZM63.0506 1.612V7.696H63.8506V1.612H63.0506ZM63.0506 7.696C63.0506 7.96461 63.0005 8.21072 62.9029 8.43843L63.6382 8.75357C63.7806 8.42128 63.8506 8.06739 63.8506 7.696H63.0506ZM62.9029 8.43843C62.8022 8.67336 62.6665 8.87442 62.4957 9.04516L63.0614 9.61084C63.3067 9.36558 63.4989 9.07864 63.6382 8.75357L62.9029 8.43843ZM62.4902 9.05076C62.3294 9.21805 62.1346 9.35223 61.901 9.45234L62.2161 10.1877C62.5425 10.0478 62.8278 9.85395 63.0669 9.60524L62.4902 9.05076ZM61.901 9.45234C61.672 9.55048 61.4297 9.6 61.1706 9.6V10.4C61.5354 10.4 61.8851 10.3295 62.2161 10.1877L61.901 9.45234ZM61.1706 9.6H55.3266V10.4H61.1706V9.6ZM55.3266 9.6C55.0674 9.6 54.8251 9.55048 54.5961 9.45234L54.281 10.1877C54.612 10.3295 54.9617 10.4 55.3266 10.4V9.6ZM54.5961 9.45234C54.3612 9.35166 54.1601 9.21589 53.9894 9.04516L53.4237 9.61084C53.669 9.85611 53.9559 10.0483 54.281 10.1877L54.5961 9.45234ZM53.9949 9.05076C53.8302 8.87944 53.6963 8.67658 53.5942 8.43843L52.8589 8.75357C52.9968 9.07542 53.183 9.36056 53.4182 9.60524L53.9949 9.05076ZM53.5942 8.43843C53.4966 8.21072 53.4466 7.96461 53.4466 7.696H52.6466C52.6466 8.06739 52.7165 8.42128 52.8589 8.75357L53.5942 8.43843ZM53.4466 7.696V1.612H52.6466V7.696H53.4466ZM67.6558 1.612L67.9123 1.30502L67.8009 1.212H67.6558V1.612ZM76.4038 8.92L76.1474 9.22698L76.8038 9.77537V8.92H76.4038ZM76.4038 1.612V1.212H76.0038V1.612H76.4038ZM77.2318 1.612H77.6318V1.212H77.2318V1.612ZM77.2318 10V10.4H77.6318V10H77.2318ZM76.4038 10L76.1474 10.307L76.2587 10.4H76.4038V10ZM67.6558 2.692L67.9123 2.38502L67.2558 1.83663V2.692H67.6558ZM67.6558 10V10.4H68.0558V10H67.6558ZM66.8278 10H66.4278V10.4H66.8278V10ZM66.8278 1.612V1.212H66.4278V1.612H66.8278ZM67.3994 1.91898L76.1474 9.22698L76.6603 8.61302L67.9123 1.30502L67.3994 1.91898ZM76.8038 8.92V1.612H76.0038V8.92H76.8038ZM76.4038 2.012H77.2318V1.212H76.4038V2.012ZM76.8318 1.612V10H77.6318V1.612H76.8318ZM77.2318 9.6H76.4038V10.4H77.2318V9.6ZM76.6603 9.69302L67.9123 2.38502L67.3994 2.99898L76.1474 10.307L76.6603 9.69302ZM67.2558 2.692V10H68.0558V2.692H67.2558ZM67.6558 9.6H66.8278V10.4H67.6558V9.6ZM67.2278 10V1.612H66.4278V10H67.2278ZM66.8278 2.012H67.6558V1.212H66.8278V2.012Z" fill="white"/>
</svg>
